<?xml version="1.0" encoding="utf-8"?>
<!-- Generator: Adobe Illustrator 18.0.0, SVG Export Plug-In . SVG Version: 6.00 Build 0)  -->
<!DOCTYPE svg PUBLIC "-//W3C//DTD SVG 1.1//EN" "http://www.w3.org/Graphics/SVG/1.1/DTD/svg11.dtd">
<svg version="1.1" id="Layer_1" xmlns="http://www.w3.org/2000/svg" xmlns:xlink="http://www.w3.org/1999/xlink" x="0px" y="0px"
	 viewBox="0 0 60 60" enable-background="new 0 0 60 60" xml:space="preserve">
<g>
	<path fill="#FFFFFF" d="M2.5,14.4h55.1c1.4,0,2.5-1.1,2.5-2.5c0-1.4-1.1-2.5-2.5-2.5H2.5C1.1,9.5,0,10.6,0,11.9
		C0,13.3,1.1,14.4,2.5,14.4z"/>
	<path fill="#FFFFFF" d="M57.5,45.5H2.5c-1.4,0-2.5,1.1-2.5,2.5c0,1.4,1.1,2.5,2.5,2.5h55.1c1.4,0,2.5-1.1,2.5-2.5
		C60,46.6,58.9,45.5,57.5,45.5z"/>
	<path fill="#FFFFFF" d="M57.5,27.5H2.5c-1.4,0-2.5,1.1-2.5,2.5c0,1.4,1.1,2.5,2.5,2.5h55.1c1.4,0,2.5-1.1,2.5-2.5
		C60,28.6,58.9,27.5,57.5,27.5z"/>
</g>
</svg>
